<?xml version="1.0" encoding="utf-8" standalone="no"?>
<!DOCTYPE svg PUBLIC "-//W3C//DTD SVG 1.1//EN" "http://www.w3.org/Graphics/SVG/1.1/DTD/svg11.dtd">
<svg width="3000px" height="3000px" version="1.1" xmlns="http://www.w3.org/2000/svg" xmlns:xlink="http://www.w3.org/1999/xlink">
<g id="bg">
<rect x="0" y="0" width="3000px" height="3000px" style="fill:rgb(255,255,255);"/>
</g>
<g id="ideograms">
<path d="M1500.000,170.000 A1330.000,1330.000 40.000 0,1 2080.530,303.386 L2089.259,285.392 A1350.000,1350.000 0.000 0,0 1500.000,150.000 Z" style="stroke-width:2.0;stroke:rgb(115,115,115);stroke-linecap:round;fill:rgb(153,102,0);" />
<text x="1824.7" y="86.8" font-size="39.0px" font-family="CMUBright-Roman" style="text-anchor:middle;fill:rgb(0,0,0);" transform="rotate(372.9,1824.7,86.8)" >1</text>
<path d="M1500.000,170.000 A1330.000,1330.000 40.000 0,1 2080.530,303.386 L2089.259,285.392 A1350.000,1350.000 0.000 0,0 1500.000,150.000 Z" style="stroke-width:2.0;stroke:rgb(115,115,115);stroke-linecap:round;fill:none;" />
<path d="M2113.862,320.138 A1330.000,1330.000 40.000 0,1 2558.527,694.754 L2574.445,682.645 A1350.000,1350.000 0.000 0,0 2123.093,302.396 Z" style="stroke-width:2.0;stroke:rgb(115,115,115);stroke-linecap:round;fill:rgb(102,102,0);" />
<text x="2434.2" y="391.1" font-size="39.0px" font-family="CMUBright-Roman" style="text-anchor:middle;fill:rgb(0,0,0);" transform="rotate(400.1,2434.2,391.1)" >2</text>
<path d="M2113.862,320.138 A1330.000,1330.000 40.000 0,1 2558.527,694.754 L2574.445,682.645 A1350.000,1350.000 0.000 0,0 2123.093,302.396 Z" style="stroke-width:2.0;stroke:rgb(115,115,115);stroke-linecap:round;fill:none;" />
<path d="M2580.695,724.759 A1330.000,1330.000 40.000 0,1 2784.121,1153.686 L2803.431,1148.479 A1350.000,1350.000 0.000 0,0 2596.946,713.101 Z" style="stroke-width:2.0;stroke:rgb(115,115,115);stroke-linecap:round;fill:rgb(153,153,30);" />
<text x="2810.1" y="878.7" font-size="39.0px" font-family="CMUBright-Roman" style="text-anchor:middle;fill:rgb(0,0,0);" transform="rotate(424.6,2810.1,878.7)" >3</text>
<path d="M2580.695,724.759 A1330.000,1330.000 40.000 0,1 2784.121,1153.686 L2803.431,1148.479 A1350.000,1350.000 0.000 0,0 2596.946,713.101 Z" style="stroke-width:2.0;stroke:rgb(115,115,115);stroke-linecap:round;fill:none;" />
<path d="M2793.329,1189.837 A1330.000,1330.000 40.000 0,1 2821.809,1647.377 L2841.686,1649.593 A1350.000,1350.000 0.000 0,0 2812.777,1185.173 Z" style="stroke-width:2.0;stroke:rgb(115,115,115);stroke-linecap:round;fill:rgb(204,0,0);" />
<text x="2947.2" y="1409.9" font-size="39.0px" font-family="CMUBright-Roman" style="text-anchor:middle;fill:rgb(0,0,0);" transform="rotate(446.4,2947.2,1409.9)" >4</text>
<path d="M2793.329,1189.837 A1330.000,1330.000 40.000 0,1 2821.809,1647.377 L2841.686,1649.593 A1350.000,1350.000 0.000 0,0 2812.777,1185.173 Z" style="stroke-width:2.0;stroke:rgb(115,115,115);stroke-linecap:round;fill:none;" />
<path d="M2817.156,1684.390 A1330.000,1330.000 40.000 0,1 2687.622,2098.710 L2705.481,2107.713 A1350.000,1350.000 0.000 0,0 2836.963,1687.163 Z" style="stroke-width:2.0;stroke:rgb(115,115,115);stroke-linecap:round;fill:rgb(255,0,0);" />
<text x="2911.6" y="1941.3" font-size="39.0px" font-family="CMUBright-Roman" style="text-anchor:middle;fill:rgb(0,0,0);" transform="rotate(-72.6,2911.6,1941.3)" >5</text>
<path d="M2817.156,1684.390 A1330.000,1330.000 40.000 0,1 2687.622,2098.710 L2705.481,2107.713 A1350.000,1350.000 0.000 0,0 2836.963,1687.163 Z" style="stroke-width:2.0;stroke:rgb(115,115,115);stroke-linecap:round;fill:none;" />
<path d="M2670.363,2131.783 A1330.000,1330.000 40.000 0,1 2421.755,2458.785 L2435.616,2473.203 A1350.000,1350.000 0.000 0,0 2687.963,2141.283 Z" style="stroke-width:2.0;stroke:rgb(115,115,115);stroke-linecap:round;fill:rgb(255,0,204);" />
<text x="2677.4" y="2395.1" font-size="39.0px" font-family="CMUBright-Roman" style="text-anchor:middle;fill:rgb(0,0,0);" transform="rotate(-52.8,2677.4,2395.1)" >6</text>
<path d="M2670.363,2131.783 A1330.000,1330.000 40.000 0,1 2421.755,2458.785 L2435.616,2473.203 A1350.000,1350.000 0.000 0,0 2687.963,2141.283 Z" style="stroke-width:2.0;stroke:rgb(115,115,115);stroke-linecap:round;fill:none;" />
<path d="M2394.502,2484.259 A1330.000,1330.000 40.000 0,1 2077.628,2698.017 L2086.314,2716.033 A1350.000,1350.000 0.000 0,0 2407.953,2499.060 Z" style="stroke-width:2.0;stroke:rgb(115,115,115);stroke-linecap:round;fill:rgb(255,204,204);" />
<text x="2326.6" y="2725.3" font-size="39.0px" font-family="CMUBright-Roman" style="text-anchor:middle;fill:rgb(0,0,0);" transform="rotate(-34.0,2326.6,2725.3)" >7</text>
<path d="M2394.502,2484.259 A1330.000,1330.000 40.000 0,1 2077.628,2698.017 L2086.314,2716.033 A1350.000,1350.000 0.000 0,0 2407.953,2499.060 Z" style="stroke-width:2.0;stroke:rgb(115,115,115);stroke-linecap:round;fill:none;" />
<path d="M2043.801,2713.746 A1330.000,1330.000 40.000 0,1 1706.610,2813.854 L1709.717,2833.611 A1350.000,1350.000 0.000 0,0 2051.978,2731.998 Z" style="stroke-width:2.0;stroke:rgb(115,115,115);stroke-linecap:round;fill:rgb(255,153,0);" />
<text x="1920.9" y="2917.8" font-size="39.0px" font-family="CMUBright-Roman" style="text-anchor:middle;fill:rgb(0,0,0);" transform="rotate(-16.5,1920.9,2917.8)" >8</text>
<path d="M2043.801,2713.746 A1330.000,1330.000 40.000 0,1 1706.610,2813.854 L1709.717,2833.611 A1350.000,1350.000 0.000 0,0 2051.978,2731.998 Z" style="stroke-width:2.0;stroke:rgb(115,115,115);stroke-linecap:round;fill:none;" />
<path d="M1669.680,2819.132 A1330.000,1330.000 40.000 0,1 1330.252,2819.123 L1327.699,2838.959 A1350.000,1350.000 0.000 0,0 1672.232,2838.968 Z" style="stroke-width:2.0;stroke:rgb(115,115,115);stroke-linecap:round;fill:rgb(255,204,0);" />
<text x="1500.0" y="2979.0" font-size="39.0px" font-family="CMUBright-Roman" style="text-anchor:middle;fill:rgb(0,0,0);" transform="rotate(0.0,1500.0,2979.0)" >9</text>
<path d="M1669.680,2819.132 A1330.000,1330.000 40.000 0,1 1330.252,2819.123 L1327.699,2838.959 A1350.000,1350.000 0.000 0,0 1672.232,2838.968 Z" style="stroke-width:2.0;stroke:rgb(115,115,115);stroke-linecap:round;fill:none;" />
<path d="M1293.322,2813.843 A1330.000,1330.000 40.000 0,1 980.059,2724.157 L972.240,2742.566 A1350.000,1350.000 0.000 0,0 1290.214,2833.600 Z" style="stroke-width:2.0;stroke:rgb(115,115,115);stroke-linecap:round;fill:rgb(255,255,0);" />
<text x="1092.9" y="2921.9" font-size="39.0px" font-family="CMUBright-Roman" style="text-anchor:middle;fill:rgb(0,0,0);" transform="rotate(16.0,1092.9,2921.9)" >10</text>
<path d="M1293.322,2813.843 A1330.000,1330.000 40.000 0,1 980.059,2724.157 L972.240,2742.566 A1350.000,1350.000 0.000 0,0 1290.214,2833.600 Z" style="stroke-width:2.0;stroke:rgb(115,115,115);stroke-linecap:round;fill:none;" />
<path d="M945.930,2709.093 A1330.000,1330.000 40.000 0,1 669.558,2538.877 L657.070,2554.499 A1350.000,1350.000 0.000 0,0 937.599,2727.275 Z" style="stroke-width:2.0;stroke:rgb(115,115,115);stroke-linecap:round;fill:rgb(204,255,0);" />
<text x="724.9" y="2758.5" font-size="39.0px" font-family="CMUBright-Roman" style="text-anchor:middle;fill:rgb(0,0,0);" transform="rotate(31.6,724.9,2758.5)" >11</text>
<path d="M945.930,2709.093 A1330.000,1330.000 40.000 0,1 669.558,2538.877 L657.070,2554.499 A1350.000,1350.000 0.000 0,0 937.599,2727.275 Z" style="stroke-width:2.0;stroke:rgb(115,115,115);stroke-linecap:round;fill:none;" />
<path d="M640.748,2515.178 A1330.000,1330.000 40.000 0,1 422.062,2279.070 L405.853,2290.785 A1350.000,1350.000 0.000 0,0 627.827,2530.443 Z" style="stroke-width:2.0;stroke:rgb(115,115,115);stroke-linecap:round;fill:rgb(0,255,0);" />
<text x="415.7" y="2504.3" font-size="39.0px" font-family="CMUBright-Roman" style="text-anchor:middle;fill:rgb(0,0,0);" transform="rotate(47.2,415.7,2504.3)" >12</text>
<path d="M640.748,2515.178 A1330.000,1330.000 40.000 0,1 422.062,2279.070 L405.853,2290.785 A1350.000,1350.000 0.000 0,0 627.827,2530.443 Z" style="stroke-width:2.0;stroke:rgb(115,115,115);stroke-linecap:round;fill:none;" />
<path d="M400.636,2248.531 A1330.000,1330.000 40.000 0,1 269.399,2004.500 L250.894,2012.087 A1350.000,1350.000 0.000 0,0 384.104,2259.788 Z" style="stroke-width:2.0;stroke:rgb(115,115,115);stroke-linecap:round;fill:rgb(53,128,0);" />
<text x="197.4" y="2200.5" font-size="39.0px" font-family="CMUBright-Roman" style="text-anchor:middle;fill:rgb(0,0,0);" transform="rotate(61.7,197.4,2200.5)" >13</text>
<path d="M400.636,2248.531 A1330.000,1330.000 40.000 0,1 269.399,2004.500 L250.894,2012.087 A1350.000,1350.000 0.000 0,0 384.104,2259.788 Z" style="stroke-width:2.0;stroke:rgb(115,115,115);stroke-linecap:round;fill:none;" />
<path d="M255.734,1969.788 A1330.000,1330.000 40.000 0,1 188.388,1720.392 L168.664,1723.707 A1350.000,1350.000 0.000 0,0 237.023,1976.853 Z" style="stroke-width:2.0;stroke:rgb(115,115,115);stroke-linecap:round;fill:rgb(0,0,204);" />
<text x="73.1" y="1885.3" font-size="39.0px" font-family="CMUBright-Roman" style="text-anchor:middle;fill:rgb(0,0,0);" transform="rotate(74.9,73.1,1885.3)" >14</text>
<path d="M255.734,1969.788 A1330.000,1330.000 40.000 0,1 188.388,1720.392 L168.664,1723.707 A1350.000,1350.000 0.000 0,0 237.023,1976.853 Z" style="stroke-width:2.0;stroke:rgb(115,115,115);stroke-linecap:round;fill:none;" />
<path d="M182.722,1683.520 A1330.000,1330.000 40.000 0,1 171.493,1437.007 L151.515,1436.060 A1350.000,1350.000 0.000 0,0 162.914,1686.280 Z" style="stroke-width:2.0;stroke:rgb(115,115,115);stroke-linecap:round;fill:rgb(102,153,255);" />
<text x="22.5" y="1567.3" font-size="39.0px" font-family="CMUBright-Roman" style="text-anchor:middle;fill:rgb(0,0,0);" transform="rotate(87.4,22.5,1567.3)" >15</text>
<path d="M182.722,1683.520 A1330.000,1330.000 40.000 0,1 171.493,1437.007 L151.515,1436.060 A1350.000,1350.000 0.000 0,0 162.914,1686.280 Z" style="stroke-width:2.0;stroke:rgb(115,115,115);stroke-linecap:round;fill:none;" />
<path d="M173.782,1399.772 A1330.000,1330.000 40.000 0,1 207.859,1184.926 L188.428,1180.188 A1350.000,1350.000 0.000 0,0 153.839,1398.265 Z" style="stroke-width:2.0;stroke:rgb(115,115,115);stroke-linecap:round;fill:rgb(153,204,255);" />
<text x="67.9" y="1272.9" font-size="39.0px" font-family="CMUBright-Roman" style="text-anchor:middle;fill:rgb(0,0,0);" transform="rotate(-81.0,67.9,1272.9)" >16</text>
<path d="M173.782,1399.772 A1330.000,1330.000 40.000 0,1 207.859,1184.926 L188.428,1180.188 A1350.000,1350.000 0.000 0,0 153.839,1398.265 Z" style="stroke-width:2.0;stroke:rgb(115,115,115);stroke-linecap:round;fill:none;" />
<path d="M217.204,1148.810 A1330.000,1330.000 40.000 0,1 282.554,964.532 L264.247,956.480 A1350.000,1350.000 0.000 0,0 197.914,1143.529 Z" style="stroke-width:2.0;stroke:rgb(115,115,115);stroke-linecap:round;fill:rgb(0,255,255);" />
<text x="133.4" y="1015.4" font-size="39.0px" font-family="CMUBright-Roman" style="text-anchor:middle;fill:rgb(0,0,0);" transform="rotate(-70.5,133.4,1015.4)" >17</text>
<path d="M217.204,1148.810 A1330.000,1330.000 40.000 0,1 282.554,964.532 L264.247,956.480 A1350.000,1350.000 0.000 0,0 197.914,1143.529 Z" style="stroke-width:2.0;stroke:rgb(115,115,115);stroke-linecap:round;fill:none;" />
<path d="M298.051,930.598 A1330.000,1330.000 40.000 0,1 390.359,766.789 L373.673,755.764 A1350.000,1350.000 0.000 0,0 279.977,922.035 Z" style="stroke-width:2.0;stroke:rgb(115,115,115);stroke-linecap:round;fill:rgb(204,255,255);" />
<text x="236.8" y="788.1" font-size="39.0px" font-family="CMUBright-Roman" style="text-anchor:middle;fill:rgb(0,0,0);" transform="rotate(-60.6,236.8,788.1)" >18</text>
<path d="M298.051,930.598 A1330.000,1330.000 40.000 0,1 390.359,766.789 L373.673,755.764 A1350.000,1350.000 0.000 0,0 279.977,922.035 Z" style="stroke-width:2.0;stroke:rgb(115,115,115);stroke-linecap:round;fill:none;" />
<path d="M411.360,735.956 A1330.000,1330.000 40.000 0,1 499.317,623.910 L484.269,610.736 A1350.000,1350.000 0.000 0,0 394.989,724.467 Z" style="stroke-width:2.0;stroke:rgb(115,115,115);stroke-linecap:round;fill:rgb(153,0,204);" />
<text x="359.4" y="604.7" font-size="39.0px" font-family="CMUBright-Roman" style="text-anchor:middle;fill:rgb(0,0,0);" transform="rotate(-51.9,359.4,604.7)" >19</text>
<path d="M411.360,735.956 A1330.000,1330.000 40.000 0,1 499.317,623.910 L484.269,610.736 A1350.000,1350.000 0.000 0,0 394.989,724.467 Z" style="stroke-width:2.0;stroke:rgb(115,115,115);stroke-linecap:round;fill:none;" />
<path d="M524.282,596.189 A1330.000,1330.000 40.000 0,1 633.643,490.879 L620.615,475.704 A1350.000,1350.000 0.000 0,0 509.609,582.598 Z" style="stroke-width:2.0;stroke:rgb(115,115,115);stroke-linecap:round;fill:rgb(204,51,255);" />
<text x="494.2" y="455.5" font-size="39.0px" font-family="CMUBright-Roman" style="text-anchor:middle;fill:rgb(0,0,0);" transform="rotate(-43.9,494.2,455.5)" >20</text>
<path d="M524.282,596.189 A1330.000,1330.000 40.000 0,1 633.643,490.879 L620.615,475.704 A1350.000,1350.000 0.000 0,0 509.609,582.598 Z" style="stroke-width:2.0;stroke:rgb(115,115,115);stroke-linecap:round;fill:none;" />
<path d="M662.286,466.977 A1330.000,1330.000 40.000 0,1 755.458,397.931 L744.262,381.358 A1350.000,1350.000 0.000 0,0 649.689,451.443 Z" style="stroke-width:2.0;stroke:rgb(115,115,115);stroke-linecap:round;fill:rgb(204,153,255);" />
<text x="636.7" y="335.0" font-size="39.0px" font-family="CMUBright-Roman" style="text-anchor:middle;fill:rgb(0,0,0);" transform="rotate(-36.5,636.7,335.0)" >21</text>
<path d="M662.286,466.977 A1330.000,1330.000 40.000 0,1 755.458,397.931 L744.262,381.358 A1350.000,1350.000 0.000 0,0 649.689,451.443 Z" style="stroke-width:2.0;stroke:rgb(115,115,115);stroke-linecap:round;fill:none;" />
<path d="M786.659,377.483 A1330.000,1330.000 40.000 0,1 893.955,316.104 L884.842,298.301 A1350.000,1350.000 0.000 0,0 775.933,360.603 Z" style="stroke-width:2.0;stroke:rgb(115,115,115);stroke-linecap:round;fill:rgb(102,102,102);" />
<text x="780.0" y="241.4" font-size="39.0px" font-family="CMUBright-Roman" style="text-anchor:middle;fill:rgb(0,0,0);" transform="rotate(-29.8,780.0,241.4)" >22</text>
<path d="M786.659,377.483 A1330.000,1330.000 40.000 0,1 893.955,316.104 L884.842,298.301 A1350.000,1350.000 0.000 0,0 775.933,360.603 Z" style="stroke-width:2.0;stroke:rgb(115,115,115);stroke-linecap:round;fill:none;" />
<path d="M927.397,299.572 A1330.000,1330.000 40.000 0,1 1283.254,187.780 L1279.995,168.047 A1350.000,1350.000 0.000 0,0 918.787,281.521 Z" style="stroke-width:2.0;stroke:rgb(115,115,115);stroke-linecap:round;fill:rgb(153,153,153);" />
<text x="1065.4" y="116.7" font-size="39.0px" font-family="CMUBright-Roman" style="text-anchor:middle;fill:rgb(0,0,0);" transform="rotate(-17.4,1065.4,116.7)" >x</text>
<path d="M927.397,299.572 A1330.000,1330.000 40.000 0,1 1283.254,187.780 L1279.995,168.047 A1350.000,1350.000 0.000 0,0 918.787,281.521 Z" style="stroke-width:2.0;stroke:rgb(115,115,115);stroke-linecap:round;fill:none;" />
<path d="M1320.143,182.217 A1330.000,1330.000 40.000 0,1 1462.698,170.523 L1462.138,150.531 A1350.000,1350.000 0.000 0,0 1317.438,162.401 Z" style="stroke-width:2.0;stroke:rgb(115,115,115);stroke-linecap:round;fill:rgb(204,204,204);" />
<text x="1381.5" y="54.9" font-size="39.0px" font-family="CMUBright-Roman" style="text-anchor:middle;fill:rgb(0,0,0);" transform="rotate(-4.7,1381.5,54.9)" >y</text>
<path d="M1320.143,182.217 A1330.000,1330.000 40.000 0,1 1462.698,170.523 L1462.138,150.531 A1350.000,1350.000 0.000 0,0 1317.438,162.401 Z" style="stroke-width:2.0;stroke:rgb(115,115,115);stroke-linecap:round;fill:none;" />
</g>
<defs>
<pattern id="checker" width="10" height="10" patternTransform="rotate(45 0 0)" patternUnits="userSpaceOnUse"><line x1="0" y1="0" x2="10" y2="0" style="stroke:black;stroke-width:2" /><line x1="0" y1="0" x2="0" y2="10" style="stroke:black;stroke-width:2" /></pattern>
<pattern id="vline-sparse" width="10" height="10" patternTransform="rotate(0 0 0)" patternUnits="userSpaceOnUse"><line x1="0" y1="0" x2="0" y2="10" style="stroke:black;stroke-width:2" /></pattern>
<pattern id="hline-sparse" width="10" height="10" patternTransform="rotate(0 0 0)" patternUnits="userSpaceOnUse"><line x1="0" y1="0" x2="10" y2="0" style="stroke:black;stroke-width:2" /></pattern>
<pattern id="hline" width="10" height="10" patternTransform="rotate(0 0 0)" patternUnits="userSpaceOnUse"><line x1="0" y1="0" x2="10" y2="0" style="stroke:black;stroke-width:5" /></pattern>
<pattern id="vline" width="10" height="10" patternTransform="rotate(0 0 0)" patternUnits="userSpaceOnUse"><line x1="0" y1="0" x2="0" y2="10" style="stroke:black;stroke-width:5" /></pattern>
<pattern id="checker" width="10" height="10" patternTransform="rotate(45 0 0)" patternUnits="userSpaceOnUse"><line x1="0" y1="0" x2="10" y2="0" style="stroke:black;stroke-width:5" /><line x1="0" y1="0" x2="0" y2="10" style="stroke:black;stroke-width:4" /></pattern>
</defs>
</svg>
